<?xml version="1.0" encoding="iso-8859-1"?>
<!-- Generator: Adobe Illustrator 19.0.0, SVG Export Plug-In . SVG Version: 6.00 Build 0)  -->
<svg version="1.1" id="Capa_1" xmlns="http://www.w3.org/2000/svg" xmlns:xlink="http://www.w3.org/1999/xlink" x="0px" y="0px"
	 viewBox="0 0 512 512" style="enable-background:new 0 0 512 512;" xml:space="preserve">
<g>
	<g>
		<path d="M483.316,94.499l-77.452-77.452C394.88,6.063,380.265,0,364.719,0H128c-6.435,0-11.636,5.201-11.636,11.636
			c0,6.435,5.201,11.636,11.636,11.636h236.719c9.332,0,18.106,3.631,24.692,10.228l77.452,77.452
			c6.598,6.598,10.228,15.36,10.228,24.692v341.446c0,6.423-5.213,11.636-11.636,11.636c-6.435,0-11.636,5.201-11.636,11.636
			S459.02,512,465.455,512c19.247,0,34.909-15.663,34.909-34.909V135.645C500.364,120.099,494.301,105.484,483.316,94.499z"/>
	</g>
</g>
<g>
	<g>
		<path d="M302.545,46.545c-6.435,0-11.636,5.201-11.636,11.636v46.545c0,6.435,5.201,11.636,11.636,11.636
			c6.435,0,11.636-5.201,11.636-11.636V58.182C314.182,51.747,308.98,46.545,302.545,46.545z"/>
	</g>
</g>
<g>
	<g>
		<path d="M430.545,256H81.455c-6.435,0-11.636,5.201-11.636,11.636v186.182c0,6.435,5.201,11.636,11.636,11.636
			c6.435,0,11.636-5.201,11.636-11.636V279.273h325.818v209.455H46.545c-6.423,0-11.636-5.213-11.636-11.636V34.909
			c0-6.423,5.213-11.636,11.636-11.636h23.273v128c0,6.435,5.201,11.636,11.636,11.636h279.273c6.435,0,11.636-5.201,11.636-11.636
			V58.182c0-6.435-5.201-11.636-11.636-11.636c-6.435,0-11.636,5.201-11.636,11.636v81.455h-256v-128
			C93.091,5.201,87.889,0,81.455,0H46.545C27.299,0,11.636,15.663,11.636,34.909v442.182c0,19.247,15.663,34.909,34.909,34.909h384
			c6.435,0,11.636-5.201,11.636-11.636V267.636C442.182,261.201,436.98,256,430.545,256z"/>
	</g>
</g>
<g>
	<g>
		<path d="M360.727,325.818H151.273c-6.435,0-11.636,5.201-11.636,11.636c0,6.435,5.201,11.636,11.636,11.636h209.455
			c6.435,0,11.636-5.201,11.636-11.636C372.364,331.02,367.162,325.818,360.727,325.818z"/>
	</g>
</g>
<g>
	<g>
		<path d="M360.727,372.364H151.273c-6.435,0-11.636,5.201-11.636,11.636s5.201,11.636,11.636,11.636h209.455
			c6.435,0,11.636-5.201,11.636-11.636S367.162,372.364,360.727,372.364z"/>
	</g>
</g>
<g>
	<g>
		<path d="M360.727,418.909H151.273c-6.435,0-11.636,5.201-11.636,11.636s5.201,11.636,11.636,11.636h209.455
			c6.435,0,11.636-5.201,11.636-11.636S367.162,418.909,360.727,418.909z"/>
	</g>
</g>
<g>
</g>
<g>
</g>
<g>
</g>
<g>
</g>
<g>
</g>
<g>
</g>
<g>
</g>
<g>
</g>
<g>
</g>
<g>
</g>
<g>
</g>
<g>
</g>
<g>
</g>
<g>
</g>
<g>
</g>
</svg>
